# xmcd
#
# Track frame offsets:
#   150
#   8807
#   24770
#   38680
#   53550
#   69385
#   78472
#   93172
#   105857
#   117592
#   130720
#   148047
#   161417
#   176022
#
# Disc length: 2561 seconds
#
# Revision: 0
# Processed by: cddbd v1.5.2PL0 Copyright (c) Steve Scherf et al.
# Submitted via: uFREEDB ActiveX Control 1.5
#
DISCID=a109ff0e
DTITLE=Sílvio Caldas - Brilhantes
DYEAR=1998
DGENRE=Alternative
TTITLE0=Chuivas de Verão
TTITLE1=Casinha Pequinina
TTITLE2=Mágoa
TTITLE3=O Nome dela eu não digo
TTITLE4=Eu Sonhei! Que tu estavas tão linda
TTITLE5=Cabelos Brancos
TTITLE6=Serenata
TTITLE7=Chão de estrelas
TTITLE8=Fita amarela
TTITLE9=Piston de Gafieira
TTITLE10=Noite Cheia de estrelas
TTITLE11=Poema dos olhos da amada
TTITLE12=Se todos fossem iguais a você
TTITLE13=Serenata do adeus
EXTD=
EXTT0=
EXTT1=
EXTT2=
EXTT3=
EXTT4=
EXTT5=
EXTT6=
EXTT7=
EXTT8=
EXTT9=
EXTT10=
EXTT11=
EXTT12=
EXTT13=
PLAYORDER=
